<?xml version="1.0" encoding="UTF-8"?>
<svg viewBox="0 0 1693.3374 527.09583" xmlns="http://www.w3.org/2000/svg">
 <defs>
  <filter id="i">
   <feGaussianBlur stdDeviation="5.54905"/>
  </filter>
  <filter id="j" x="-.03575" y="-.11032" width="1.0715" height="1.2206">
   <feGaussianBlur stdDeviation="3.51813"/>
  </filter>
  <filter id="a" x="-.03722" y="-.10202" width="1.0744" height="1.204">
   <feGaussianBlur stdDeviation="3.42702"/>
  </filter>
  <filter id="k" x="-.11476" y="-.03196" width="1.2295" height="1.0639">
   <feGaussianBlur stdDeviation="2.9794"/>
  </filter>
  <linearGradient id="h" x1="-484.02" x2="1177.7" gradientUnits="userSpaceOnUse">
   <stop stop-color="#fdd99b" offset="0"/>
   <stop stop-color="#d9bb7a" offset=".25"/>
   <stop stop-color="#816647" offset=".63218"/>
   <stop stop-color="#565248" offset="1"/>
  </linearGradient>
  <linearGradient id="g" x1="397.34" x2="288.33" y1="528.83" y2="185.59" gradientUnits="userSpaceOnUse">
   <stop offset="0"/>
   <stop stop-color="#00f" offset=".37415"/>
   <stop stop-color="#00f" offset=".58718"/>
   <stop stop-color="#0ff" offset="1"/>
  </linearGradient>
  <linearGradient id="f" x1="281.73" x2="332.2" y1="473.97" y2="273.86" gradientUnits="userSpaceOnUse">
   <stop stop-color="#fff" stop-opacity="0" offset="0"/>
   <stop stop-color="#fff" offset="1"/>
  </linearGradient>
  <linearGradient id="e" x1="483.25" x2="266.23" y1="340.05" y2="263.35" gradientUnits="userSpaceOnUse">
   <stop stop-color="#400400" offset="0"/>
   <stop stop-color="#c08400" offset=".39067"/>
   <stop stop-color="#fcfc80" offset="1"/>
  </linearGradient>
  <linearGradient id="d" x1="394.83" x2="384.98" y1="470.25" y2="277.14" gradientUnits="userSpaceOnUse">
   <stop stop-opacity=".83206" offset="0"/>
   <stop stop-color="#8c5000" offset=".33739"/>
   <stop stop-color="#c88c00" offset=".52936"/>
   <stop stop-color="#fcfc80" offset="1"/>
  </linearGradient>
  <linearGradient id="c" x1="423.27" x2="297.14" y1="227.39" y2="252.38" gradientUnits="userSpaceOnUse">
   <stop stop-color="#985c00" offset="0"/>
   <stop stop-color="#f4e86c" offset="1"/>
  </linearGradient>
  <radialGradient id="b" cx="305.5" cy="371.58" r="62.644" gradientTransform="matrix(.52173 1.6375 -1.4328 .65001 676.45 -384.75)" gradientUnits="userSpaceOnUse">
   <stop stop-color="#fff" offset="0"/>
   <stop stop-color="#f00" offset=".25"/>
   <stop stop-color="#f00" offset=".46968"/>
   <stop offset="1"/>
  </radialGradient>
 </defs>
 <g transform="translate(521.74 -346.3)" fill="#808080" filter="url(#i)">
  <path transform="translate(-532.82 -79.816)" d="m29.685 938.55c0.80788-0.62549 25.391-19.197 54.63-41.27l53.161-40.132 49.632 0.15761 49.632 0.15762-46.989 41.112-46.989 41.112h-57.273c-55.806 0-57.236-0.0291-55.805-1.1373z" opacity=".91308"/>
  <path transform="translate(-532.82 -79.816)" d="m143.61 852.59c0.14115-0.1401 21.737-16.487 47.99-36.326l47.733-36.071 42.794-0.0127 42.794-0.0127-1.8359 1.7705c-1.0097 0.97377-19.648 17.326-41.419 36.339l-39.583 34.568h-49.365c-27.151 0-49.249-0.11462-49.108-0.25471z" opacity=".91308"/>
  <path transform="translate(-532.82 -79.816)" d="m252.28 851.07c0.6681-0.63611 19.027-16.852 40.797-36.035l39.582-34.879 40.276 0.1584 40.276 0.15841-32.125 35.844-32.125 35.844-48.948 0.0329c-47.906 0.0322-48.922 8e-3 -47.733-1.1237z" opacity=".91308"/>
  <path transform="translate(-532.82 -79.816)" d="m246.2 775.21c0.35328-0.35329 15.306-11.715 33.228-25.248l32.586-24.605 37.857-5e-3c32.426-4e-3 37.727 0.11862 36.955 0.85549-0.49603 0.47314-13.461 11.837-28.811 25.252l-27.909 24.392h-42.274c-29.342 0-42.077-0.1965-41.631-0.64233z" opacity=".91308"/>
  <path transform="translate(-532.82 -79.816)" d="m338.19 775.59c0-0.14696 12.745-11.513 28.322-25.258l28.322-24.99 33.812 0.1592 33.812 0.1592-22.131 24.636-22.131 24.636-19.215 0.37933c-23.754 0.46895-60.789 0.63792-60.789 0.27735z" opacity=".91308"/>
  <path transform="translate(-532.82 -79.816)" d="m399.5 721.13c0.32182-0.28588 12.286-10.818 26.587-23.405l26.001-22.885h27.788c15.283 0 27.696 0.22322 27.583 0.49605s-9.4756 10.805-20.806 23.405l-20.601 22.909h-33.569c-18.463 0-33.305-0.2339-32.984-0.51978z" opacity=".91308"/>
  <path transform="translate(-532.82 -79.816)" d="m317.3 721.4c0.14115-0.13745 14.067-10.672 30.947-23.41l30.69-23.16 33.175 0.15926 33.175 0.15926-26.587 23.251-26.587 23.251h-37.535c-20.644 0-37.419-0.11246-37.278-0.24992z" opacity=".91308"/>
  <path transform="translate(-532.82 -79.816)" d="m398.01 660.39 15.007-11.375 31.082-0.0197c26.109-0.0165 30.937 0.1132 30.18 0.81083-0.49603 0.45677-6.3488 5.5842-13.006 11.394l-12.104 10.564h-66.165l15.007-11.375z" opacity=".91308"/>
  <path transform="translate(-532.82 -79.816)" d="m455.88 671.52c0.14115-0.13642 5.9141-5.2322 12.829-11.324l12.572-11.076 24.871-0.45494c13.679-0.25021 24.987-0.33906 25.128-0.19744s-4.374 5.4351-10.035 11.763l-10.292 11.506-27.665 0.0155c-15.216 9e-3 -27.549-0.0961-27.408-0.23252z" opacity=".91308"/>
  <path transform="translate(-532.82 -79.816)" d="m518.21 669.96c0.83385-0.99098 5.4743-6.257 10.312-11.702l8.796-9.9005h23.648c20.123 0 23.575 0.12888 23.156 0.86455-0.2709 0.47551-3.957 5.7355-8.1914 11.689l-7.6989 10.824-25.769 0.0134-25.769 0.0134 1.5161-1.8018z" opacity=".91308"/>
  <path transform="translate(-532.82 -79.816)" d="m573.9 670.94c0.27089-0.45197 3.957-5.7147 8.1914-11.695l7.6989-10.873 26.709-7e-3 26.709-7e-3 -0.87819 1.3858c-0.48301 0.76219-3.4759 6.0282-6.6508 11.702l-5.7726 10.317h-28.25c-23.386 0-28.165-0.14147-27.757-0.82176z" opacity=".91308"/>
  <path transform="translate(-532.82 -79.816)" d="m635.06 671.42c0-0.19223 2.8409-5.4581 6.3131-11.702l6.3131-11.352 23.875-4.6e-4 23.875-4.6e-4 -0.81765 2.0017c-0.44971 1.101-2.5904 6.367-4.757 11.702l-3.9393 9.7006h-25.431c-13.987 0-25.431-0.15727-25.431-0.34949z" opacity=".91308"/>
  <path transform="translate(-532.82 -79.816)" d="m607.44 721.04c0.11292-0.33699 5.8871-10.864 12.831-23.394l12.626-22.781 25.78-0.0106c24.291-0.01 25.758 0.0517 25.396 1.0673-0.21134 0.59281-4.4677 11.119-9.4586 23.392l-9.0743 22.314-29.153 0.013c-19.066 8e-3 -29.082-0.19899-28.948-0.59969z" opacity=".91308"/>
  <path transform="translate(-532.82 -79.816)" d="m538.46 721.15c0.11393-0.2808 7.5023-10.815 16.419-23.41l16.211-22.9h57.116l-5.4541 9.7006c-2.9998 5.3353-8.8747 15.798-13.055 23.251l-7.6013 13.55-31.921 0.15955c-17.557 0.0878-31.828-0.0702-31.714-0.35101z" opacity=".91308"/>
  <path transform="translate(-532.82 -79.816)" d="m473.18 720.58c0.50368-0.59282 9.8505-11.125 20.771-23.405l19.855-22.327h25.826c14.204 0 25.826 0.14524 25.826 0.32276s-7.3918 10.71-16.426 23.405l-16.426 23.082h-30.171c-28.672 0-30.125-0.0535-29.255-1.0778z" opacity=".91308"/>
  <path transform="translate(-532.82 -79.816)" d="m446.59 750.29 22.222-24.944h30.49c25.364 0 30.407 0.13918 29.997 0.82782-0.2709 0.45531-8.2493 11.68-17.73 24.944l-17.237 24.117h-69.964l22.222-24.944z" opacity=".91308"/>
  <path transform="translate(-532.82 -79.816)" d="m358.31 849.49c1.2967-1.5049 15.661-17.704 31.921-35.999l29.564-33.263 35.312-0.0318c20.544-0.0185 35.226 0.19877 35.107 0.51954-0.11292 0.30326-11.569 16.509-25.458 36.013l-25.252 35.462-41.776 0.0177-41.776 0.0177 2.3576-2.7362z" opacity=".91308"/>
  <path transform="translate(-532.82 -79.816)" d="m279.07 938.59c0.50216-0.7143 16.987-19.33 36.633-41.368l35.72-40.07h42.09c23.15 0 41.998 0.23303 41.885 0.51784s-13.211 18.716-29.107 40.958l-28.902 40.44-35.153 1e-3c-19.334 6.1e-4 -41.662 0.18543-49.616 0.41035l-14.463 0.40894 0.913-1.2987v1.9e-4z" opacity=".91308"/>
  <path transform="translate(-532.82 -79.816)" d="m152.82 938.82c0.49602-0.47964 21.525-19.049 46.731-41.266l45.829-40.394h98.995l-16.49 18.339-37.077 41.266-20.587 22.927h-59.152c-51.032 0-59.028-0.11972-58.25-0.87206z" opacity=".91308"/>
  <path transform="translate(-532.82 -79.816)" d="m387.26 934.83c1.6343-2.3383 14.612-20.756 28.84-40.929l25.868-36.677 41.728-0.0331c22.95-0.0182 41.722 0.17479 41.715 0.42885s-10.204 18.616-22.66 40.804l-22.647 40.342-47.908 0.15776-47.908 0.15777 2.9714-4.2514z" opacity=".91308"/>
  <path transform="translate(-532.82 -79.816)" d="m446.35 851.46c0.24626-0.42344 11.658-16.637 25.359-36.031l24.912-35.261h72.46l-7.3401 13.088c-4.0371 7.1985-13.097 23.403-20.133 36.01l-12.793 22.922-41.456 0.0211c-32.998 0.0168-41.365-0.13599-41.009-0.74879z" opacity=".91308"/>
  <path transform="translate(-532.82 -79.816)" d="m502.15 772.31c1.1536-1.6091 9.1032-12.834 17.666-24.944l15.568-22.019h64.479l-5.805 10.317c-3.1927 5.6741-9.4794 16.895-13.97 24.936l-8.1654 14.619-35.935 9e-3 -35.935 9e-3 2.0975-2.9256z" opacity=".91308"/>
  <path transform="translate(-532.82 -79.816)" d="m578.97 772.01c1.001-1.7784 7.211-12.934 13.8-24.79l11.98-21.557 29.588-0.15987 29.588-0.15987-5.234 12.786c-2.8787 7.0323-7.4687 18.26-10.2 24.95l-4.966 12.164h-66.376l1.8199-3.2335z" opacity=".91308"/>
  <path transform="translate(-532.82 -79.816)" d="m534.76 851.71c0.11292-0.28689 9.0744-16.496 19.914-36.021l19.709-35.499 33.479-0.0102c31.627-0.01 33.457 0.0494 33.084 1.0676-0.21756 0.59281-6.8262 16.807-14.686 36.031l-14.29 34.953h-38.708c-21.289 0-38.615-0.23473-38.503-0.52161z" opacity=".91308"/>
  <path transform="translate(-532.82 -79.816)" d="m486.84 938.15c0.19462-0.50717 10.364-18.938 22.599-40.958l22.245-40.036h39.124c31.05 0 39.062 0.15889 38.822 0.76989-0.16617 0.42344-7.5739 18.508-16.462 40.188s-16.294 39.765-16.459 40.188c-0.236 0.60615-9.8625 0.76989-45.261 0.76989-39.675 0-44.92-0.10841-44.608-0.92212z" opacity=".91308"/>
  <path transform="translate(-532.82 -79.816)" d="m591.35 916.44c5.0339-12.449 12.462-30.811 16.506-40.804l7.3538-18.169 43.141-0.15813 43.141-0.15812-1.0904 3.8536c-0.59969 2.1195-5.6374 20.552-11.195 40.962l-10.105 37.109h-96.906l9.1525-22.635z" opacity=".91308"/>
  <path transform="translate(-532.82 -79.816)" d="m624.99 833.29c4.222-10.417 10.778-26.629 14.568-36.027l6.8915-17.087 38.013-4e-3c30.148-3e-3 37.956 0.15517 37.738 0.76577-0.15134 0.42344-4.179 15.182-8.9503 32.797s-9.093 33.482-9.6038 35.261l-0.92862 3.2335h-85.404l7.6764-18.939z" opacity=".91308"/>
  <path transform="translate(-532.82 -79.816)" d="m648.71 774.68c0.11292-0.30976 4.6399-11.531 10.06-24.935l9.8546-24.372 34.379-9e-3c32.458-9e-3 34.36 0.0511 34.05 1.0688-0.18077 0.59281-3.119 11.333-6.5294 23.867s-6.3486 23.274-6.5294 23.867c-0.30833 1.0112-2.654 1.0778-37.909 1.0778-22.448 0-37.498-0.22679-37.375-0.5632z" opacity=".91308"/>
  <path transform="translate(-532.82 -79.816)" d="m671.07 719.41c0.52392-1.3067 4.7767-11.799 9.4506-23.317l8.4981-20.941 30.913-0.15968c17.002-0.0878 30.913 0.0514 30.913 0.30946 0 0.68123-12.172 45.183-12.419 45.403-0.11411 0.10187-15.53 0.38669-34.258 0.63292l-34.051 0.4477 0.95256-2.3758z" opacity=".91308"/>
  <path transform="translate(-532.82 -79.816)" d="m695.14 659.98c2.5209-6.1457 4.5834-11.273 4.5834-11.394s13.184-0.22031 29.297-0.22031c27.616 0 29.279 0.0618 28.97 1.0778-0.17989 0.59281-1.3216 4.8195-2.5372 9.3926s-2.4944 9.2156-2.8418 10.317l-0.63164 2.0017h-61.424l4.5834-11.174z" opacity=".91308"/>
  <path transform="translate(-532.82 -79.816)" d="m684.88 938.49c0-0.31873 4.5859-17.711 10.191-38.648s10.457-39.074 10.782-40.302l0.59074-2.2333 31.87-0.28297c17.529-0.15562 31.943-0.23249 32.032-0.1708 0.13434 0.0929-15.151 76.449-16.182 80.831l-0.32578 1.3858h-34.479c-21.132 0-34.479-0.22434-34.479-0.57951z" opacity=".91308"/>
  <path transform="translate(-532.82 -79.816)" d="m759.41 938.63c0-0.24013 3.6353-18.81 8.0784-41.266l8.0784-40.829h79.418l-0.35246 7.237c-0.19387 3.9803-0.49802 16.799-0.6759 28.486s-0.49722 27-0.70964 34.029l-0.38621 12.78h-46.725c-25.699 0-46.725-0.19647-46.725-0.43659z" opacity=".91308"/>
  <path transform="translate(-532.82 -79.816)" d="m776.69 851.15c0.0219-0.59281 3.1502-16.737 6.9519-35.877l6.9121-34.799 14.451-0.37975c7.9481-0.20886 22.738-0.41673 32.867-0.46193l18.416-0.0822-0.40204 19.247c-0.22113 10.586-0.58038 26.938-0.79833 36.339l-0.39628 17.092h-39.02c-36.767 0-39.018-0.0623-38.98-1.0778z" opacity=".91308"/>
  <path transform="translate(-532.82 -79.816)" d="m709.18 847.15c0.76395-2.7947 5.103-19.006 9.6424-36.025l8.2534-30.944 29.477-5e-3 29.477-5e-3 -0.32163 1.3858c-0.1769 0.76219-3.4552 16.976-7.2851 36.031l-6.9635 34.645h-63.668l1.389-5.0813z" opacity=".91308"/>
  <path transform="translate(-532.82 -79.816)" d="m728.83 773.85c0.19804-0.76219 3.1941-11.987 6.6579-24.944l6.2979-23.559h27.597c15.178 0 27.597 0.0944 27.597 0.20973s-2.2173 11.229-4.9273 24.696-4.9273 24.598-4.9273 24.735-13.197 0.24803-29.328 0.24803h-29.328l0.36006-1.3858z" opacity=".91308"/>
  <path transform="translate(-532.82 -79.816)" d="m791.73 774.47c0.14277-0.42344 2.3831-11.648 4.9784-24.944l4.7189-24.175h55.938l-0.34557 20.479c-0.19006 11.263-0.49778 22.488-0.68383 24.944l-0.33825 4.4654h-32.263c-25.539 0-32.209-0.16048-32.004-0.76989z" opacity=".91308"/>
  <path transform="translate(-532.82 -79.816)" d="m802.52 720.58c-1e-3 -0.25407 1.9954-10.648 4.4367-23.097l4.4387-22.635h46.929l-0.19067 11.24c-0.10487 6.1822-0.3571 16.576-0.56052 23.097l-0.36985 11.856h-27.341c-15.037 0-27.342-0.20787-27.343-0.46193z" opacity=".91308"/>
  <path transform="translate(-532.82 -79.816)" d="m744.38 715.65c0.81718-2.9641 3.6062-13.358 6.1977-23.097l4.7119-17.707h52.004l-4.6724 23.097-4.6724 23.097h-55.055l1.4858-5.3892z" opacity=".91308"/>
  <path transform="translate(-532.82 -79.816)" d="m756.35 671c0.01-0.0847 1.3562-5.1429 2.9927-11.24l2.9754-11.086 25.031-0.16089c13.767-0.0885 25.031 0.0725 25.031 0.35765s-0.97006 5.3241-2.1557 11.198-2.1557 10.771-2.1557 10.883-11.641 0.20367-25.868 0.20367-25.86-0.0693-25.851-0.15397z" opacity=".91308"/>
  <path transform="translate(-532.82 -79.816)" d="m812.38 670.69c5e-3 -0.53056 3.5065-18.852 4.0016-20.941l0.32844-1.3858h41.859v22.789h-23.097c-12.703 0-23.095-0.20787-23.092-0.46193z" opacity=".91308"/>
  <path transform="translate(-532.82 -79.816)" d="m862.48 666.44c0.21908-2.5918 0.39833-7.7233 0.39833-11.404v-6.6913l18.286 0.16314 18.286 0.16315 2.0002 10.163c1.1001 5.5894 2.0177 10.648 2.0392 11.24 0.0364 1.0059-1.3435 1.0778-20.684 1.0778h-20.723l0.39834-4.7123z" opacity=".91308"/>
  <path transform="translate(-532.82 -79.816)" d="m905.79 660.22c-1.2473-6.0128-2.2659-11.143-2.2637-11.401s11.281-0.39645 25.065-0.30796l25.061 0.16089 2.941 10.778c1.6176 5.9282 2.9511 10.986 2.9634 11.24s-11.57 0.46193-25.738 0.46193h-25.76l-2.2678-10.932z" opacity=".91308"/>
  <path transform="translate(-532.82 -79.816)" d="m963.65 670.07c-0.17823-0.59282-1.4556-5.2352-2.8385-10.317s-2.6603-9.7237-2.8385-10.317c-0.30543-1.0159 1.3551-1.0778 28.907-1.0778 22.799 0 29.304 0.16941 29.56 0.76989 0.1806 0.42344 2.2665 5.5509 4.6353 11.394l4.3069 10.624h-30.704c-28.708 0-30.725-0.0701-31.028-1.0778z" opacity=".91308"/>
  <path transform="translate(-532.82 -79.816)" d="m1029.6 670.38-3.5158-8.4688c-1.7581-4.2344-3.7187-9.0154-4.3569-10.624l-1.1605-2.9256h47.789l4.5242 8.1608c2.4883 4.4885 5.3392 9.6159 6.3352 11.394l1.811 3.2335h-25.553c-19.862 0-25.624-0.17148-25.872-0.76989z" opacity=".91308"/>
  <path transform="translate(-532.82 -79.816)" d="m1085 669.76c-0.4728-0.76219-2.8677-4.9889-5.322-9.3926s-5.0066-8.9076-5.6718-10.009l-1.2095-2.0017h53.401l7.687 10.906c4.2278 5.9983 7.7794 11.126 7.8923 11.394s-12.422 0.48832-27.856 0.48832h-28.061l-0.8597-1.3858z" opacity=".91308"/>
  <path transform="translate(-532.82 -79.816)" d="m1146.7 670.07c-0.9864-1.1548-14.156-19.655-14.907-20.941-0.3565-0.61035 4.452-0.76989 23.204-0.76989h23.654l8.8716 9.9771c4.8793 5.4874 9.3767 10.615 9.9941 11.394l1.1225 1.4173h-25.51c-23.533 0-25.581-0.0835-26.43-1.0778z" opacity=".91308"/>
  <path transform="translate(-532.82 -79.816)" d="m1196.7 662.45c-4.2344-4.7587-8.7598-9.8751-10.056-11.37l-2.3576-2.7176 24.838 0.0226 24.838 0.0225 9.9016 8.7542 12.867 11.372 2.9654 2.6176-27.649-0.0246-27.649-0.0246-7.6989-8.6522z" opacity=".91308"/>
  <path transform="translate(-532.82 -79.816)" d="m1253.7 660.31c-6.775-5.9402-12.582-11.058-12.903-11.373-0.3605-0.35253 7.8116-0.57217 21.289-0.57217h21.874l15.586 11.058c8.5725 6.082 15.738 11.209 15.923 11.394s-10.866 0.32635-24.557 0.31436l-24.893-0.0218-12.318-10.8z" opacity=".91308"/>
  <path transform="translate(-532.82 -79.816)" d="m1296.7 697.79-26.587-23.251 25.163-0.16077 25.163-0.16077 32.235 22.87c17.729 12.579 32.498 23.114 32.82 23.411 0.3369 0.31165-12.734 0.54126-30.811 0.54126h-31.396l-26.587-23.251z" opacity=".91308"/>
  <path transform="translate(-532.82 -79.816)" d="m1228.5 697.78-20.853-23.246 27.777-0.16025 27.777-0.16025 26.511 23.411 26.512 23.411-33.435-5e-3 -33.435-5e-3 -20.853-23.246z" opacity=".91308"/>
  <path transform="translate(-532.82 -79.816)" d="m1166.8 698.47c-8.8076-12.38-16.235-22.899-16.506-23.375-0.4201-0.73883 3.3405-0.85991 25.56-0.82302l26.053 0.0433 19.709 22.189c10.84 12.204 20.089 22.716 20.554 23.361 0.8277 1.1488 0.2282 1.1722-29.256 1.1435l-30.101-0.0293-16.014-22.509z" opacity=".91308"/>
  <path transform="translate(-532.82 -79.816)" d="m1100.9 698.13c-7.0724-12.597-12.951-23.129-13.064-23.405s12.636-0.48445 28.332-0.46484l28.537 0.0356 16.447 23.369 16.447 23.369h-63.841l-12.859-22.904z" opacity=".91308"/>
  <path transform="translate(-532.82 -79.816)" d="m1045.3 708.87c-2.7304-6.6903-7.0406-17.225-9.5784-23.411l-4.614-11.247 25.886 0.16063 25.886 0.16063 10.448 18.785c5.7465 10.332 11.558 20.795 12.915 23.251l2.4666 4.4654h-58.445l-4.9643-12.164z" opacity=".91308"/>
  <path transform="translate(-532.82 -79.816)" d="m977.21 719.96c-1.7056-5.8364-12.086-44.526-12.086-45.046 0-1.0498 61.342-0.96553 61.781 0.0849 3.705 8.87 18.288 45.188 18.288 45.546 0 0.27162-15.225 0.49386-33.834 0.49386-31.692 0-33.854-0.0682-34.149-1.0778z" opacity=".91308"/>
  <path transform="translate(-532.82 -79.816)" d="m913.44 698.24c-2.4986-12.542-4.434-22.9-4.3008-23.019s11.762-0.3512 25.842-0.51663l25.6-0.30079 3.886 14.543c2.1373 7.9987 4.937 18.493 6.2216 23.32l2.3356 8.7767h-55.042l-4.543-22.803z" opacity=".91308"/>
  <path transform="translate(-532.82 -79.816)" d="m861.65 714.11c6.9e-4 -3.811 0.18375-14.204 0.4068-23.097l0.40554-16.168h42.159l4.3819 22.335c2.41 12.284 4.3819 22.678 4.3819 23.097 0 0.59299-5.7313 0.76177-25.868 0.76177h-25.868l1e-3 -6.929z" opacity=".91308"/>
  <path transform="translate(-532.82 -79.816)" d="m860.74 752.91c0.19276-12.28 0.49328-23.505 0.66783-24.944l0.31734-2.6176h52.759l0.33689 1.3858c0.18529 0.76219 2.3069 11.502 4.7146 23.867s4.5222 22.966 4.6987 23.559c0.30276 1.0168-1.4952 1.0778-31.762 1.0778h-32.083l0.35047-22.327z" opacity=".91308"/>
  <path transform="translate(-532.82 -79.816)" d="m924.22 751.37c-2.6101-13.127-4.887-24.352-5.0596-24.944-0.29574-1.0152 1.2988-1.0778 27.444-1.0778 15.267 0 27.758 0.13005 27.758 0.28901s2.9102 11.168 6.4671 24.464 6.4671 24.391 6.4671 24.655-13.124 0.48023-29.165 0.48023h-29.165l-4.7457-23.867z" opacity=".91308"/>
  <path transform="translate(-532.82 -79.816)" d="m991.98 774.16c-0.61409-2.0208-13.306-48.939-13.306-49.189 0-0.13663 15.421-0.17681 34.27-0.0893l34.27 0.15915 10.076 24.896c5.5416 13.693 10.076 24.987 10.076 25.098s-16.888 0.20205-37.529 0.20205c-35.207 0-37.549-0.0667-37.857-1.0778z" opacity=".91308"/>
  <path transform="translate(-532.82 -79.816)" d="m1062.5 750.76c-5.5183-13.465-10.168-24.829-10.334-25.252-0.2381-0.60938 5.8457-0.76989 29.18-0.76989h29.481l11.697 21.057 14.027 25.252 2.3306 4.1958h-66.349l-10.033-24.482z" opacity=".91308"/>
  <path transform="translate(-532.82 -79.816)" d="m1133 755.4c-6.0975-10.898-12.423-22.255-14.057-25.239l-2.9706-5.4246 32.226 0.0339 32.226 0.0339 14.782 21.017c8.13 11.559 16.117 22.908 17.749 25.218l2.9676 4.2014-35.919-0.0136-35.919-0.0136-11.086-19.814z" opacity=".91308"/>
  <path transform="translate(-532.82 -79.816)" d="m1203.7 749.98-17.981-25.25 30.607 0.0447 30.607 0.0448 16.938 19.114c9.3156 10.513 19.382 21.856 22.369 25.208l5.4317 6.0938-34.996-2e-3 -34.995-2e-3 -17.981-25.25z" opacity=".91308"/>
  <path transform="translate(-532.82 -79.816)" d="m1281.3 756.6c-9.1814-10.243-19.389-21.603-22.683-25.245l-5.9896-6.621h67.81l28.116 24.79 28.115 24.79-15.625 0.37488c-8.5936 0.20619-26.296 0.41059-39.337 0.45423l-23.713 0.0793-16.694-18.624z" opacity=".91308"/>
  <path transform="translate(-532.82 -79.816)" d="m1356.6 750.33c-15.188-13.323-27.924-24.533-28.301-24.91-0.5042-0.50413 7.7986-0.68145 31.31-0.66871l31.997 0.0173 33.875 24.068 35.09 24.927c1.044 0.73791-4.2397 0.85386-37.571 0.82447l-38.786-0.0342-27.615-24.224z" opacity=".91308"/>
  <path transform="translate(-532.82 -79.816)" d="m1342 824.05c-13.621-15.159-28.201-31.373-32.401-36.031l-7.6361-8.4688h80.716l39.917 35.174c21.955 19.346 40.323 35.56 40.819 36.031 0.7705 0.73164-6.2038 0.8564-47.874 0.8564h-48.776l-24.765-27.562z" opacity=".91308"/>
  <path transform="translate(-532.82 -79.816)" d="m1251.2 816.74c-13.889-19.503-25.474-35.85-25.745-36.327-0.4211-0.74183 4.6212-0.86493 34.799-0.84959l35.292 0.0179 31.863 35.818c17.525 19.7 31.798 35.868 31.72 35.929s-18.713 0.28162-41.41 0.4907l-41.266 0.38016-25.252-35.459z" opacity=".91308"/>
  <path transform="translate(-532.82 -79.816)" d="m1186.6 850.84c-1.3216-2.0946-39.804-70.806-39.804-71.071 0-0.12667 16.276-0.15879 36.169-0.0714l36.168 0.1589 25.423 35.928c13.982 19.76 25.423 36.044 25.423 36.185s-18.563 0.25676-41.252 0.25676h-41.252l-0.8743-1.3858z" opacity=".91308"/>
  <path transform="translate(-532.82 -79.816)" d="m1092.7 824.66c-6.2003-15.157-12.896-31.51-14.878-36.341l-3.6049-8.782 33.575 0.15921 33.575 0.15921 19.703 35.415c10.836 19.478 19.844 35.761 20.018 36.185 0.25 0.61111-7.6694 0.76917-38.399 0.76641l-38.714-3e-3 -11.274-27.559z" opacity=".91308"/>
  <path transform="translate(-532.82 -79.816)" d="m1012.5 849.61c-1.5097-5.6594-18.502-67.97-18.813-68.987-0.31376-1.0259 1.6608-1.0742 37.708-0.92387l38.039 0.15869 5.3261 13.242c2.9293 7.2832 9.5042 23.566 14.611 36.185l9.2847 22.943h-85.457l-0.6983-2.6176z" opacity=".91308"/>
  <path transform="translate(-532.82 -79.816)" d="m944.47 851.46c-0.2661-0.71769-14.458-71.045-14.458-71.646 0-0.15077 13.228-0.20215 29.396-0.11418l29.396 0.15995 7.2575 27.1c3.9916 14.905 8.3394 31.188 9.6616 36.185l2.404 9.0847h-31.686c-24.786 0-31.748-0.16765-31.971-0.76989z" opacity=".91308"/>
  <path transform="translate(-532.82 -79.816)" d="m859.41 825.59c0.22244-14.651 0.57937-31.006 0.79318-36.344l0.38873-9.706 32.368 0.15938 32.368 0.15937 6.955 35.107c3.8252 19.309 6.9591 35.592 6.9643 36.185 9e-3 1.0156-2.3085 1.0778-40.116 1.0778h-40.126l0.40445-26.638z" opacity=".91308"/>
  <path transform="translate(-532.82 -79.816)" d="m857.55 920.75c0.22133-10.078 0.58603-28.648 0.81044-41.266l0.40801-22.943h81.587l0.33795 1.3858c0.69068 2.8322 15.809 79.756 15.809 80.437 0 0.52872-12.626 0.70889-49.678 0.70889h-49.678l0.40243-18.323z" opacity=".91308"/>
  <path transform="translate(-532.82 -79.816)" d="m961.81 937.38c-0.17411-0.59282-3.7947-18.4-8.0458-39.572s-7.8742-39.118-8.0515-39.88l-0.32224-1.3858h32.039c17.622 0 32.039 0.11502 32.039 0.2556s4.6934 17.81 10.43 39.264 10.617 39.771 10.845 40.703l0.4155 1.6938h-34.516c-32.341 0-34.536-0.0679-34.833-1.0778z" opacity=".91308"/>
  <path transform="translate(-532.82 -79.816)" d="m1036.1 936.15c-0.3726-1.2703-5.2974-19.343-10.944-40.162s-10.404-38.21-10.572-38.648c-0.2482-0.64685 7.7938-0.7966 42.778-0.7966h43.084l16.417 40.598c9.0294 22.329 16.417 40.76 16.417 40.958s-21.713 0.36021-48.252 0.36021h-48.252l-0.6774-2.3097z" opacity=".91308"/>
  <path transform="translate(-532.82 -79.816)" d="m1138.5 936.45c-9.3897-22.743-31.98-78.04-32.207-78.837-0.2899-1.0185 1.8427-1.0773 38.721-1.0676l39.028 0.0102 19.709 35.505c10.84 19.528 21.046 37.954 22.68 40.948l2.9706 5.4429h-90.076l-0.8264-2.0017z" opacity=".91308"/>
  <path transform="translate(-532.82 -79.816)" d="m1214.4 900.42c-11.733-20.918-22.064-39.349-22.958-40.958l-1.6257-2.9256h83.576l28.633 40.462c15.748 22.254 28.725 40.685 28.838 40.958s-21.245 0.4957-47.462 0.4957h-47.667l-21.333-38.033z" opacity=".91308"/>
  <path transform="translate(-532.82 -79.816)" d="m1311.9 901.68c-14.397-20.213-27.512-38.64-29.144-40.949l-2.9676-4.197h84.254l31.126 34.953c17.119 19.224 33.54 37.655 36.491 40.958l5.3654 6.0051-49.474-9e-3 -49.474-0.01-26.176-36.752z" opacity=".91308"/>
  <path transform="translate(-532.82 -79.816)" d="m1408.9 898.68c-19.648-21.868-36.103-40.295-36.568-40.949-0.8329-1.1722-0.139-1.1893 48.383-1.1893h49.228l45.852 40.403c25.218 22.222 46.115 40.653 46.437 40.958 0.3474 0.32948-23.423 0.55109-58.512 0.54551l-59.097-9e-3 -35.723-39.759v2e-5z" opacity=".91308"/>
  <path transform="translate(-532.82 -79.816)" d="m1432.3 816.48c-22.003-19.287-40.425-35.485-40.936-35.996-0.8292-0.82926 3.3084-0.9299 38.231-0.9299h39.161l50.433 35.791c27.738 19.685 50.548 35.899 50.689 36.031s-21.755 0.22402-48.657 0.20511l-48.914-0.0344-40.006-35.067z" opacity=".91308"/>
  <path transform="translate(-532.82 -79.816)" d="m1525.3 897.71-46.762-40.864 49.357-0.15763 49.357-0.15763 57.006 40.468c31.353 22.258 56.946 40.517 56.872 40.578s-26.894 0.30902-59.601 0.5531l-59.467 0.44379-46.762-40.864z" opacity=".91308"/>
 </g>
 <g transform="translate(484.02 -520.22)" fill="url(#h)">
  <path d="m-483.71 1012.6c0.80787-0.6255 25.391-19.197 54.63-41.27l53.161-40.132 49.632 0.15761 49.632 0.15762-46.989 41.112-46.989 41.112h-57.273c-55.806 0-57.236-0.029-55.805-1.1372z"/>
  <path d="m-369.79 926.69c0.14115-0.1401 21.737-16.487 47.99-36.326l47.733-36.071 42.794-0.0127 42.794-0.0127-1.8359 1.7705c-1.0097 0.97377-19.648 17.326-41.419 36.339l-39.583 34.568h-49.365c-27.151 0-49.249-0.11462-49.108-0.25471z"/>
  <path d="m-261.12 925.17c0.6681-0.63611 19.027-16.852 40.797-36.035l39.582-34.879 40.276 0.1584 40.276 0.15841-32.125 35.844-32.125 35.844-48.948 0.0329c-47.906 0.0322-48.922 8e-3 -47.733-1.1237z"/>
  <path d="m-267.2 849.31c0.35328-0.35329 15.306-11.715 33.228-25.248l32.586-24.605 37.857-5e-3c32.426-4e-3 37.727 0.11862 36.955 0.85549-0.49603 0.47314-13.461 11.837-28.811 25.252l-27.909 24.392h-42.274c-29.342 0-42.077-0.1965-41.631-0.64233z"/>
  <path d="m-175.21 849.68c0-0.14696 12.745-11.513 28.322-25.258l28.322-24.99 33.812 0.1592 33.812 0.1592-22.131 24.636-22.131 24.636-19.215 0.37933c-23.754 0.46895-60.789 0.63792-60.789 0.27735z"/>
  <path d="m-113.9 795.23c0.32182-0.28588 12.286-10.818 26.587-23.405l26.001-22.885h27.788c15.283 0 27.696 0.22322 27.583 0.49605s-9.4756 10.805-20.806 23.405l-20.601 22.909h-33.569c-18.463 0-33.305-0.2339-32.984-0.51978z"/>
  <path d="m-196.1 795.5c0.14115-0.13745 14.067-10.672 30.947-23.41l30.69-23.16 33.175 0.15926 33.175 0.15926-26.587 23.251-26.587 23.251h-37.535c-20.644 0-37.419-0.11246-37.278-0.24992z"/>
  <path d="m-115.39 734.49 15.007-11.375 31.082-0.0197c26.109-0.0165 30.937 0.1132 30.18 0.81083-0.49603 0.45677-6.3488 5.5842-13.006 11.394l-12.104 10.564h-66.165l15.007-11.375z"/>
  <path d="m-57.523 745.61c0.14115-0.13642 5.9141-5.2322 12.829-11.324l12.572-11.076 24.871-0.45494c13.679-0.25021 24.987-0.33906 25.128-0.19744s-4.374 5.4351-10.035 11.763l-10.292 11.506-27.665 0.0155c-15.216 9e-3 -27.549-0.0961-27.408-0.23252z"/>
  <path d="m4.8072 744.06c0.83385-0.99098 5.4743-6.257 10.312-11.702l8.796-9.9005h23.648c20.123 0 23.575 0.12888 23.156 0.86455-0.2709 0.47551-3.957 5.7355-8.1914 11.689l-7.6989 10.824-25.769 0.0134-25.769 0.0134 1.5161-1.8018z"/>
  <path d="m60.496 745.04c0.27089-0.45197 3.957-5.7147 8.1914-11.695l7.6989-10.873 26.709-7e-3 26.709-7e-3 -0.87819 1.3858c-0.48301 0.76219-3.4759 6.0282-6.6508 11.702l-5.7726 10.317h-28.25c-23.386 0-28.165-0.14147-27.757-0.82176z"/>
  <path d="m121.66 745.51c0-0.19223 2.8409-5.4581 6.3131-11.702l6.3131-11.352 23.875-4.6e-4 23.875-4.6e-4 -0.81765 2.0017c-0.44971 1.101-2.5904 6.367-4.757 11.702l-3.9393 9.7006h-25.431c-13.987 0-25.431-0.15727-25.431-0.34949z"/>
  <path d="m94.042 795.14c0.11292-0.33699 5.8871-10.864 12.831-23.394l12.626-22.781 25.78-0.0106c24.291-0.01 25.758 0.0517 25.396 1.0673-0.21134 0.59281-4.4677 11.119-9.4586 23.392l-9.0743 22.314-29.153 0.013c-19.066 8e-3 -29.082-0.19899-28.948-0.59969z"/>
  <path d="m25.058 795.25c0.11393-0.2808 7.5023-10.815 16.419-23.41l16.211-22.9h57.116l-5.4541 9.7006c-2.9998 5.3353-8.8747 15.798-13.055 23.251l-7.6013 13.55-31.921 0.15955c-17.557 0.0878-31.828-0.0702-31.714-0.35101z"/>
  <path d="m-40.22 794.67c0.50368-0.59282 9.8505-11.125 20.771-23.405l19.855-22.327h25.826c14.204 0 25.826 0.14524 25.826 0.32276s-7.3918 10.71-16.426 23.405l-16.426 23.082h-30.171c-28.672 0-30.125-0.0535-29.255-1.0778z"/>
  <path d="m-66.806 824.39 22.222-24.944h30.49c25.364 0 30.407 0.13918 29.997 0.82782-0.2709 0.45531-8.2493 11.68-17.73 24.944l-17.237 24.117h-69.964l22.222-24.944z"/>
  <path d="m-155.09 923.59c1.2967-1.5049 15.661-17.704 31.921-35.999l29.564-33.263 35.312-0.0318c20.544-0.0185 35.226 0.19877 35.107 0.51954-0.11292 0.30326-11.569 16.509-25.458 36.013l-25.252 35.462-41.776 0.0177-41.776 0.0177 2.3576-2.7362z"/>
  <path d="m-234.33 1012.7c0.50216-0.7143 16.987-19.33 36.633-41.369l35.72-40.07h42.09c23.15 0 41.998 0.23303 41.885 0.51784s-13.211 18.716-29.107 40.958l-28.902 40.44-35.153 1e-3c-19.334 6e-4 -41.662 0.1854-49.616 0.4103l-14.463 0.409 0.913-1.2987v1e-4z"/>
  <path d="m-360.58 1012.9c0.49602-0.4797 21.525-19.049 46.731-41.266l45.829-40.394h98.995l-16.49 18.339-37.077 41.266-20.587 22.927h-59.152c-51.032 0-59.028-0.1197-58.25-0.872z"/>
  <path d="m-126.14 1008.9c1.6343-2.3383 14.612-20.756 28.84-40.929l25.868-36.677 41.728-0.0331c22.95-0.0182 41.722 0.17479 41.715 0.42885s-10.204 18.616-22.66 40.804l-22.647 40.342-47.908 0.1578-47.908 0.1577 2.9714-4.2514z"/>
  <path d="m-67.054 925.55c0.24626-0.42344 11.658-16.637 25.359-36.031l24.912-35.261h72.46l-7.3401 13.088c-4.0371 7.1985-13.097 23.403-20.133 36.01l-12.793 22.922-41.456 0.0211c-32.998 0.0168-41.365-0.13599-41.009-0.74879z"/>
  <path d="m-11.247 846.41c1.1536-1.6091 9.1032-12.834 17.666-24.944l15.568-22.019h64.479l-5.805 10.317c-3.1927 5.6741-9.4794 16.895-13.97 24.936l-8.1654 14.619-35.935 9e-3 -35.935 9e-3 2.0975-2.9256z"/>
  <path d="m65.569 846.1c1.001-1.7784 7.211-12.934 13.8-24.79l11.98-21.557 29.588-0.15987 29.588-0.15987-5.234 12.786c-2.8787 7.0323-7.4687 18.26-10.2 24.95l-4.966 12.164h-66.376l1.8199-3.2335z"/>
  <path d="m21.365 925.8c0.11292-0.28689 9.0744-16.496 19.914-36.021l19.709-35.499 33.479-0.0102c31.627-0.01 33.457 0.0494 33.084 1.0676-0.21756 0.59281-6.8262 16.807-14.686 36.031l-14.29 34.953h-38.708c-21.289 0-38.615-0.23473-38.503-0.52161z"/>
  <path d="m-26.557 1012.2c0.19462-0.5072 10.364-18.938 22.599-40.958l22.245-40.036h39.124c31.05 0 39.062 0.15889 38.822 0.76989-0.16617 0.42344-7.5739 18.508-16.462 40.188s-16.294 39.765-16.459 40.188c-0.236 0.6062-9.8625 0.7699-45.261 0.7699-39.675 0-44.92-0.1084-44.608-0.9221z"/>
  <path d="m77.947 990.53c5.0339-12.449 12.462-30.811 16.506-40.804l7.3538-18.169 43.141-0.15813 43.141-0.15812-1.0904 3.8536c-0.59969 2.1195-5.6374 20.552-11.195 40.962l-10.105 37.109h-96.906l9.1525-22.635z"/>
  <path d="m111.59 907.38c4.222-10.417 10.778-26.629 14.568-36.027l6.8915-17.087 38.013-4e-3c30.148-3e-3 37.956 0.15517 37.738 0.76577-0.15134 0.42344-4.179 15.182-8.9503 32.797s-9.093 33.482-9.6038 35.261l-0.92862 3.2335h-85.404l7.6764-18.939z"/>
  <path d="m135.31 848.77c0.11292-0.30976 4.6399-11.531 10.06-24.935l9.8546-24.372 34.379-9e-3c32.458-9e-3 34.36 0.0511 34.05 1.0688-0.18077 0.59281-3.119 11.333-6.5294 23.867s-6.3486 23.274-6.5294 23.867c-0.30833 1.0112-2.654 1.0778-37.909 1.0778-22.448 0-37.498-0.22679-37.375-0.5632z"/>
  <path d="m157.67 793.51c0.52392-1.3067 4.7767-11.799 9.4506-23.317l8.4981-20.941 30.913-0.15968c17.002-0.0878 30.913 0.0514 30.913 0.30946 0 0.68123-12.172 45.183-12.419 45.403-0.11411 0.10187-15.53 0.38669-34.258 0.63292l-34.051 0.4477 0.95256-2.3758z"/>
  <path d="m181.74 734.07c2.5209-6.1457 4.5834-11.273 4.5834-11.394s13.184-0.22031 29.297-0.22031c27.616 0 29.279 0.0618 28.97 1.0778-0.17989 0.59281-1.3216 4.8195-2.5372 9.3926s-2.4944 9.2156-2.8418 10.317l-0.63164 2.0017h-61.424l4.5834-11.174z"/>
  <path d="m171.48 1012.6c0-0.3187 4.5859-17.711 10.191-38.648s10.457-39.074 10.782-40.302l0.59074-2.2333 31.87-0.28297c17.529-0.15562 31.943-0.23249 32.032-0.1708 0.13434 0.0929-15.151 76.449-16.182 80.832l-0.32578 1.3858h-34.479c-21.132 0-34.479-0.2243-34.479-0.5795z"/>
  <path d="m246.01 1012.7c0-0.2401 3.6353-18.81 8.0784-41.266l8.0784-40.829h79.418l-0.35246 7.237c-0.19387 3.9803-0.49802 16.799-0.6759 28.486s-0.49722 27-0.70964 34.029l-0.38621 12.78h-46.725c-25.699 0-46.725-0.1965-46.725-0.4366z"/>
  <path d="m263.29 925.25c0.0219-0.59281 3.1502-16.737 6.9519-35.877l6.9121-34.799 14.451-0.37975c7.9481-0.20886 22.738-0.41673 32.867-0.46193l18.416-0.0822-0.40204 19.247c-0.22113 10.586-0.58038 26.938-0.79833 36.339l-0.39628 17.092h-39.02c-36.767 0-39.018-0.0623-38.98-1.0778z"/>
  <path d="m195.78 921.24c0.76395-2.7947 5.103-19.006 9.6424-36.025l8.2534-30.944 29.477-5e-3 29.477-5e-3 -0.32163 1.3858c-0.1769 0.76219-3.4552 16.976-7.2851 36.031l-6.9635 34.645h-63.668l1.389-5.0813z"/>
  <path d="m215.43 847.95c0.19804-0.76219 3.1941-11.987 6.6579-24.944l6.2979-23.559h27.597c15.178 0 27.597 0.0944 27.597 0.20973s-2.2173 11.229-4.9273 24.696-4.9273 24.598-4.9273 24.735-13.197 0.24803-29.328 0.24803h-29.328l0.36006-1.3858z"/>
  <path d="m278.33 848.57c0.14277-0.42344 2.3831-11.648 4.9784-24.944l4.7189-24.175h55.938l-0.34557 20.479c-0.19006 11.263-0.49778 22.488-0.68383 24.944l-0.33825 4.4654h-32.263c-25.539 0-32.209-0.16048-32.004-0.76989z"/>
  <path d="m289.12 794.67c-1e-3 -0.25407 1.9954-10.648 4.4367-23.097l4.4387-22.635h46.929l-0.19067 11.24c-0.10487 6.1822-0.3571 16.576-0.56052 23.097l-0.36985 11.856h-27.341c-15.037 0-27.342-0.20787-27.343-0.46193z"/>
  <path d="m230.98 789.75c0.81718-2.9641 3.6062-13.358 6.1977-23.097l4.7119-17.707h52.004l-4.6724 23.097-4.6724 23.097h-55.055l1.4858-5.3892z"/>
  <path d="m242.95 745.09c0.01-0.0847 1.3562-5.1429 2.9927-11.24l2.9754-11.086 25.031-0.16089c13.767-0.0885 25.031 0.0725 25.031 0.35765s-0.97006 5.3241-2.1557 11.198-2.1557 10.771-2.1557 10.883-11.641 0.20367-25.868 0.20367-25.86-0.0693-25.851-0.15397z"/>
  <path d="m298.98 744.78c5e-3 -0.53056 3.5065-18.852 4.0016-20.941l0.32844-1.3858h41.859v22.789h-23.097c-12.703 0-23.095-0.20787-23.092-0.46193z"/>
  <path d="m349.08 740.53c0.21908-2.5918 0.39833-7.7233 0.39833-11.404v-6.6913l18.286 0.16314 18.286 0.16315 2.0002 10.163c1.1001 5.5894 2.0177 10.648 2.0392 11.24 0.0364 1.0059-1.3435 1.0778-20.684 1.0778h-20.723l0.39834-4.7123z"/>
  <path d="m392.39 734.31c-1.2473-6.0128-2.2659-11.143-2.2637-11.401s11.281-0.39645 25.065-0.30796l25.061 0.16089 2.941 10.778c1.6176 5.9282 2.9511 10.986 2.9634 11.24s-11.57 0.46193-25.738 0.46193h-25.76l-2.2678-10.932z"/>
  <path d="m450.25 744.17c-0.17823-0.59282-1.4556-5.2352-2.8385-10.317s-2.6603-9.7237-2.8385-10.317c-0.30543-1.0159 1.3551-1.0778 28.907-1.0778 22.799 0 29.304 0.16941 29.56 0.76989 0.1806 0.42344 2.2665 5.5509 4.6353 11.394l4.3069 10.624h-30.704c-28.708 0-30.725-0.0701-31.028-1.0778z"/>
  <path d="m516.21 744.48-3.5158-8.4688c-1.7581-4.2344-3.7187-9.0154-4.3569-10.624l-1.1605-2.9256h47.789l4.5242 8.1608c2.4883 4.4885 5.3392 9.6159 6.3352 11.394l1.811 3.2335h-25.553c-19.862 0-25.624-0.17148-25.872-0.76989z"/>
  <path d="m571.61 743.86c-0.4728-0.76219-2.8677-4.9889-5.322-9.3926s-5.0066-8.9076-5.6718-10.009l-1.2095-2.0017h53.401l7.687 10.906c4.2278 5.9983 7.7794 11.126 7.8923 11.394s-12.422 0.48832-27.856 0.48832h-28.061l-0.8597-1.3858z"/>
  <path d="m633.3 744.17c-0.9864-1.1548-14.156-19.655-14.907-20.941-0.3565-0.61035 4.452-0.76989 23.204-0.76989h23.654l8.8716 9.9771c4.8793 5.4874 9.3767 10.615 9.9941 11.394l1.1225 1.4173h-25.51c-23.533 0-25.581-0.0835-26.43-1.0778z"/>
  <path d="m683.31 736.54c-4.2344-4.7587-8.7598-9.8751-10.056-11.37l-2.3576-2.7176 24.838 0.0226 24.838 0.0225 9.9016 8.7542 12.867 11.372 2.9654 2.6176-27.649-0.0246-27.649-0.0246-7.6989-8.6522z"/>
  <path d="m740.28 734.4c-6.775-5.9402-12.582-11.058-12.903-11.373-0.3605-0.35253 7.8116-0.57217 21.289-0.57217h21.874l15.586 11.058c8.5725 6.082 15.738 11.209 15.923 11.394s-10.866 0.32635-24.557 0.31436l-24.893-0.0218-12.318-10.8z"/>
  <path d="m783.26 771.88-26.587-23.251 25.163-0.16077 25.163-0.16077 32.235 22.87c17.729 12.579 32.498 23.114 32.82 23.411 0.3369 0.31165-12.734 0.54126-30.811 0.54126h-31.396l-26.587-23.251z"/>
  <path d="m715.11 771.88-20.853-23.246 27.777-0.16025 27.777-0.16025 26.511 23.411 26.512 23.411-33.435-5e-3 -33.435-5e-3 -20.853-23.246z"/>
  <path d="m653.43 772.57c-8.8076-12.38-16.235-22.899-16.506-23.375-0.4201-0.73883 3.3405-0.85991 25.56-0.82302l26.053 0.0433 19.709 22.189c10.84 12.204 20.089 22.716 20.554 23.361 0.8277 1.1488 0.2282 1.1722-29.256 1.1435l-30.101-0.0293-16.014-22.509z"/>
  <path d="m587.46 772.23c-7.0724-12.597-12.951-23.129-13.064-23.405s12.636-0.48445 28.332-0.46484l28.537 0.0356 16.447 23.369 16.447 23.369h-63.841l-12.859-22.904z"/>
  <path d="m531.91 782.97c-2.7304-6.6903-7.0406-17.225-9.5784-23.411l-4.614-11.247 25.886 0.16063 25.886 0.16063 10.448 18.785c5.7465 10.332 11.558 20.795 12.915 23.251l2.4666 4.4654h-58.445l-4.9643-12.164z"/>
  <path d="m463.81 794.06c-1.7056-5.8364-12.086-44.526-12.086-45.046 0-1.0498 61.342-0.96553 61.781 0.0849 3.705 8.87 18.288 45.188 18.288 45.546 0 0.27162-15.225 0.49386-33.834 0.49386-31.692 0-33.854-0.0682-34.149-1.0778z"/>
  <path d="m400.04 772.33c-2.4986-12.542-4.434-22.9-4.3008-23.019s11.762-0.3512 25.842-0.51663l25.6-0.30079 3.886 14.543c2.1373 7.9987 4.937 18.493 6.2216 23.32l2.3356 8.7767h-55.042l-4.543-22.803z"/>
  <path d="m348.25 788.21c6.9e-4 -3.811 0.18375-14.204 0.4068-23.097l0.40554-16.168h42.159l4.3819 22.335c2.41 12.284 4.3819 22.678 4.3819 23.097 0 0.59299-5.7313 0.76177-25.868 0.76177h-25.868l1e-3 -6.929z"/>
  <path d="m347.34 827.01c0.19276-12.28 0.49328-23.505 0.66783-24.944l0.31734-2.6176h52.759l0.33689 1.3858c0.18529 0.76219 2.3069 11.502 4.7146 23.867s4.5222 22.966 4.6987 23.559c0.30276 1.0168-1.4952 1.0778-31.762 1.0778h-32.083l0.35047-22.327z"/>
  <path d="m410.82 825.47c-2.6101-13.127-4.887-24.352-5.0596-24.944-0.29574-1.0152 1.2988-1.0778 27.444-1.0778 15.267 0 27.758 0.13005 27.758 0.28901s2.9102 11.168 6.4671 24.464 6.4671 24.391 6.4671 24.655-13.124 0.48023-29.165 0.48023h-29.165l-4.7457-23.867z"/>
  <path d="m478.58 848.26c-0.61409-2.0208-13.306-48.939-13.306-49.189 0-0.13663 15.421-0.17681 34.27-0.0893l34.27 0.15915 10.076 24.896c5.5416 13.693 10.076 24.987 10.076 25.098s-16.888 0.20205-37.529 0.20205c-35.207 0-37.549-0.0667-37.857-1.0778z"/>
  <path d="m549.07 824.85c-5.5183-13.465-10.168-24.829-10.334-25.252-0.2381-0.60938 5.8457-0.76989 29.18-0.76989h29.481l11.697 21.057 14.027 25.252 2.3306 4.1958h-66.349l-10.033-24.482z"/>
  <path d="m619.56 829.49c-6.0975-10.898-12.423-22.255-14.057-25.239l-2.9706-5.4246 32.226 0.0339 32.226 0.0339 14.782 21.017c8.13 11.559 16.117 22.908 17.749 25.218l2.9676 4.2014-35.919-0.0136-35.919-0.0136-11.086-19.814z"/>
  <path d="m690.27 824.08-17.981-25.25 30.607 0.0447 30.607 0.0448 16.938 19.114c9.3156 10.513 19.382 21.856 22.369 25.208l5.4317 6.0938-34.996-2e-3 -34.995-2e-3 -17.981-25.25z"/>
  <path d="m767.93 830.7c-9.1814-10.243-19.389-21.603-22.683-25.245l-5.9896-6.621h67.81l28.116 24.79 28.115 24.79-15.625 0.37488c-8.5936 0.20619-26.296 0.41059-39.337 0.45423l-23.713 0.0793-16.694-18.624z"/>
  <path d="m843.24 824.43c-15.188-13.323-27.924-24.533-28.301-24.91-0.5042-0.50413 7.7986-0.68145 31.31-0.66871l31.997 0.0173 33.875 24.068 35.09 24.927c1.044 0.73791-4.2397 0.85386-37.571 0.82447l-38.786-0.0342-27.615-24.224z"/>
  <path d="m828.56 898.15c-13.621-15.159-28.201-31.373-32.401-36.031l-7.6361-8.4688h80.716l39.917 35.174c21.955 19.346 40.323 35.56 40.819 36.031 0.7705 0.73164-6.2038 0.8564-47.874 0.8564h-48.776l-24.765-27.562z"/>
  <path d="m737.81 890.84c-13.889-19.503-25.474-35.85-25.745-36.327-0.4211-0.74183 4.6212-0.86493 34.799-0.84959l35.292 0.0179 31.863 35.818c17.525 19.7 31.798 35.868 31.72 35.929s-18.713 0.28162-41.41 0.4907l-41.266 0.38016-25.252-35.459z"/>
  <path d="m673.22 924.94c-1.3216-2.0946-39.804-70.806-39.804-71.071 0-0.12667 16.276-0.15879 36.169-0.0714l36.168 0.1589 25.423 35.928c13.982 19.76 25.423 36.044 25.423 36.185s-18.563 0.25676-41.252 0.25676h-41.252l-0.8743-1.3858z"/>
  <path d="m579.34 898.76c-6.2003-15.157-12.896-31.51-14.878-36.341l-3.6049-8.782 33.575 0.15921 33.575 0.15921 19.703 35.415c10.836 19.478 19.844 35.761 20.018 36.185 0.25 0.61111-7.6694 0.76917-38.399 0.76641l-38.714-3e-3 -11.274-27.559z"/>
  <path d="m499.11 923.71c-1.5097-5.6594-18.502-67.97-18.813-68.987-0.31376-1.0259 1.6608-1.0742 37.708-0.92387l38.039 0.15869 5.3261 13.242c2.9293 7.2832 9.5042 23.566 14.611 36.185l9.2847 22.943h-85.457l-0.6983-2.6176z"/>
  <path d="m431.07 925.55c-0.2661-0.71769-14.458-71.045-14.458-71.646 0-0.15077 13.228-0.20215 29.396-0.11418l29.396 0.15995 7.2575 27.1c3.9916 14.905 8.3394 31.188 9.6616 36.185l2.404 9.0847h-31.686c-24.786 0-31.748-0.16765-31.971-0.76989z"/>
  <path d="m346.01 899.69c0.22244-14.651 0.57937-31.006 0.79318-36.344l0.38873-9.706 32.368 0.15938 32.368 0.15937 6.955 35.107c3.8252 19.309 6.9591 35.592 6.9643 36.185 9e-3 1.0156-2.3085 1.0778-40.116 1.0778h-40.126l0.40445-26.638z"/>
  <path d="m344.15 994.84c0.22133-10.078 0.58603-28.648 0.81044-41.266l0.40801-22.943h81.587l0.33795 1.3858c0.69068 2.8322 15.809 79.756 15.809 80.437 0 0.5287-12.626 0.7089-49.678 0.7089h-49.678l0.40243-18.323z"/>
  <path d="m448.41 1011.5c-0.17411-0.5928-3.7947-18.4-8.0458-39.572s-7.8742-39.118-8.0515-39.88l-0.32224-1.3858h32.039c17.622 0 32.039 0.11502 32.039 0.2556s4.6934 17.81 10.43 39.264 10.617 39.771 10.845 40.702l0.4155 1.6938h-34.516c-32.341 0-34.536-0.068-34.833-1.0779z"/>
  <path d="m522.69 1010.2c-0.3726-1.2703-5.2974-19.343-10.944-40.162s-10.404-38.21-10.572-38.648c-0.2482-0.64685 7.7938-0.7966 42.778-0.7966h43.084l16.417 40.598c9.0294 22.329 16.417 40.76 16.417 40.958s-21.713 0.3602-48.252 0.3602h-48.252l-0.6774-2.3097z"/>
  <path d="m625.14 1010.6c-9.3897-22.743-31.98-78.04-32.207-78.837-0.2899-1.0185 1.8427-1.0773 38.721-1.0676l39.028 0.0102 19.709 35.505c10.84 19.528 21.046 37.954 22.68 40.948l2.9706 5.443h-90.076l-0.8264-2.0018z"/>
  <path d="m701.01 974.52c-11.733-20.918-22.064-39.349-22.958-40.958l-1.6257-2.9256h83.576l28.633 40.462c15.748 22.254 28.725 40.686 28.838 40.958s-21.245 0.4957-47.462 0.4957h-47.667l-21.333-38.033z"/>
  <path d="m798.48 975.78c-14.397-20.213-27.512-38.64-29.144-40.949l-2.9676-4.197h84.254l31.126 34.953c17.119 19.224 33.54 37.655 36.491 40.958l5.3654 6.0052-49.474-0.01-49.474-0.01-26.176-36.752z"/>
  <path d="m895.48 972.77c-19.648-21.868-36.103-40.295-36.568-40.949-0.8329-1.1722-0.139-1.1893 48.383-1.1893h49.228l45.851 40.403c25.218 22.222 46.115 40.653 46.437 40.958 0.3474 0.3295-23.423 0.5511-58.512 0.5455l-59.097-0.01-35.723-39.759v2e-5z"/>
  <path d="m918.91 890.57c-22.003-19.287-40.425-35.485-40.936-35.996-0.8292-0.82926 3.3084-0.9299 38.231-0.9299h39.161l50.433 35.791c27.738 19.685 50.548 35.899 50.689 36.031s-21.755 0.22402-48.657 0.20511l-48.914-0.0344-40.006-35.067z"/>
  <path d="m1011.9 971.81-46.762-40.864 49.357-0.15763 49.357-0.15763 57.006 40.468c31.353 22.258 56.946 40.517 56.872 40.578s-26.894 0.309-59.601 0.5531l-59.467 0.4438-46.762-40.864z"/>
 </g>
 <g transform="translate(783.59 -228.22)">
  <path d="m240.03 493.3 101.59-265.08 122.34 266.93c-11.7 54.339-213.72 63.028-223.93-1.8516z" fill="url(#g)"/>
  <path d="m339.38 242.66-61.462 205.77c-7.5731 25.353 38.142 21.612 40.084 2.6723z" fill="url(#f)" filter="url(#k)" opacity=".7"/>
 </g>
 <path transform="translate(1100.1 -242.76)" d="m147.8 631.35c0 22.263-49.463 40.31-110.48 40.31s-110.48-18.047-110.48-40.31 49.463-40.31 110.48-40.31 110.48 18.047 110.48 40.31z" filter="url(#a)" opacity=".435"/>
 <path transform="matrix(2.042 0 0 1.7113 -185.41 -500.42)" d="m376.91 397.5c0 41.284-28.046 74.751-62.644 74.751s-62.644-33.467-62.644-74.751 28.046-74.751 62.644-74.751 62.644 33.467 62.644 74.751z" fill="url(#b)"/>
 <path transform="translate(424.3 -242.76)" d="m147.8 631.35c0 22.263-49.463 40.31-110.48 40.31s-110.48-18.047-110.48-40.31 49.463-40.31 110.48-40.31 110.48 18.047 110.48 40.31z" filter="url(#a)" opacity=".43077"/>
 <path transform="matrix(.99989 .0146 -.0146 .99989 1570.2 -152.03)" d="m-889.24 588.16 175.22-4.1678 59.826-75.811-175.48 4.3012z" filter="url(#j)" opacity=".43"/>
 <g transform="translate(457.42 -147.82)">
  <path d="m416.13 267.1 61.599-55.026 1.2101 169.57-63.052 74.591z" fill="url(#e)"/>
  <path d="m226.77 265.8h189.75v189.75h-189.75z" fill="url(#d)"/>
  <path d="m227.64 265.99 66.151-53.937 183.96 0.045-60.762 54.651z" fill="url(#c)"/>
 </g>
</svg>
